<svg xmlns="http://www.w3.org/2000/svg" viewBox="0 0 252.7 196.52"><defs><style>.cls-1{fill:#3f3600;}.cls-1,.cls-2,.cls-3,.cls-4{stroke:#000;stroke-miterlimit:10;stroke-width:0.25px;}.cls-2{fill:#faeb59;}.cls-3{fill:none;}.cls-4{fill:#fff8ad;}.cls-5{fill:#fff;}</style></defs><title>Recurso 1</title><g id="Capa_2" data-name="Capa 2"><g id="Capa_3" data-name="Capa 3"><polygon class="cls-1" points="16.74 177.47 18.64 178.64 18.72 181.6 19.18 182.46 19.18 182.46 6.08 195.75 0.28 195.61 16.74 177.47"/><polygon class="cls-2" points="16.74 177.47 14.61 165.75 16.11 158.23 20.57 150.82 37.45 132.15 32.48 156.58 31.29 159.66 28.66 164.57 28.61 167 33.65 163.28 38.93 161.43 44.04 160.1 49.26 159.16 54.11 159.69 56.61 158.84 67.66 157.73 55.58 165.62 50.81 169.81 41.13 176.74 34.96 179.43 32.85 179.88 21.09 180.5 19.18 182.46 18.75 181.61 18.64 178.64 16.74 177.47"/><polyline class="cls-2" points="28.61 167 22.98 172.94 18.64 178.64"/><polyline class="cls-2" points="24.01 162.96 23.25 163.69 22.26 167.56 20.47 171.52 16.74 177.47"/><polyline class="cls-2" points="35.1 171.92 32.22 173.17 28.1 173.69 23.02 175.45 20.41 178.41 18.64 178.64"/><line class="cls-3" x1="67.66" y1="157.73" x2="80.17" y2="151.34"/><polyline class="cls-3" points="46.9 119.4 44.81 123.14 38.47 129.28 37.45 132.15"/><polyline class="cls-2" points="56.9 115.12 53.77 136.82 49.2 146.75 61.69 140.91 85.36 135.51 87.84 134.15 91.79 134.59 79.09 145.87 61.99 158.18 56.61 158.84 54.11 159.69 49.26 159.16 38.93 161.43 33.65 163.28 28.61 167 28.66 164.57 31.29 159.66 32.48 156.58 37.45 132.15 56.9 115.12"/><polygon class="cls-4" points="43.29 152.69 39.01 159.92 36.63 162.24 33.65 163.28 28.61 167 28.66 164.57 31.29 159.66 34.79 157.96 38.19 154.6 43.29 152.69"/><polyline class="cls-2" points="56.89 115.2 67.52 103.97 71.3 98.81 73.35 117.1 67.92 127.21 100.82 123.25 87.83 134.23 85.35 135.59 61.68 140.99 49.19 146.82 53.76 136.9 56.89 115.2"/><polyline class="cls-2" points="71.31 98.73 77.53 94.06 90.11 81.32 90.11 81.32 84.64 106.06 78.13 117.28 88.15 111.8 110.77 107.4 94.76 123.91 67.93 127.13 73.36 117.02 71.31 98.73"/><polyline class="cls-2" points="84.64 106.06 89.51 84.04 108.77 65.17 103.54 90.32 115.04 87.39 127.8 88.2 110.77 107.4 88.15 111.8 78.13 117.28 84.64 106.06"/><polyline class="cls-2" points="108.77 65.17 121.33 50.69 122.12 70.66 116.89 77.93 125.26 75.8 137.04 75.11 127.8 88.2 115.04 87.39 103.54 90.32 108.77 65.17"/><polyline class="cls-2" points="122.12 70.66 121.33 50.69 129.86 40.77 135.52 31.01 131.05 61.55 141.13 57.22 150.4 55.48 149.53 57.71 137.04 75.11 116.89 77.93 122.12 70.66"/><polyline class="cls-2" points="135.52 31.01 144.44 22.61 143.82 46.45 149.43 44.82 161.68 38.58 160.57 42.09 160.57 42.09 160.57 42.09 150.4 55.48 131.05 61.55 135.52 31.01"/><polyline class="cls-2" points="144.44 22.61 152.19 13.72 153.48 21.2 153.41 27.04 162.49 19.47 166.8 18.57 171.62 17.89 164.03 28.58 169.52 26.22 161.68 38.58 149.43 44.82 143.82 46.45 144.44 22.61"/><polyline class="cls-2" points="153.5 21.2 152.77 16.95 154.66 13.9 159.22 7.47 160.65 9.95 161.27 12.53 163.83 10.06 166.51 8.75 170.31 7.98 166.81 18.58 162.51 19.47 153.43 27.05 153.5 21.2"/><polygon class="cls-4" points="57.06 140.94 56.66 142.47 56.83 143.17 56.83 143.17 49.2 146.75 53.77 136.82 54.05 134.68 64.05 131.71 59 137.66 57.06 140.94"/><polyline class="cls-2" points="55.49 151.5 54.16 151.16 51.06 151.86 48.17 153.12 45.59 154.45 41.69 157.3 39.01 159.92"/><polyline class="cls-2" points="42.64 140.06 42.23 140.35 41.57 142.96 41.24 143.84 39.45 147.4 38.28 150.3 38.19 154.6"/><line class="cls-2" x1="61.83" y1="120.05" x2="57.83" y2="133.56"/><line class="cls-2" x1="49.2" y1="146.75" x2="43.29" y2="152.69"/><line class="cls-2" x1="67.93" y1="127.13" x2="64.05" y2="131.71"/><line class="cls-2" x1="78.8" y1="102.71" x2="73.36" y2="117.02"/><polyline class="cls-4" points="78.13 117.28 76.4 126.19 67.93 127.13 73.36 117.02 73.36 117.02 78.13 117.28"/><polyline class="cls-2" points="105.98 100.01 94.95 104.76 88.15 111.8"/><line class="cls-2" x1="103.54" y1="90.32" x2="92.11" y2="100.96"/><polyline class="cls-4" points="88.15 111.8 78.13 117.28 84.64 106.06 92.11 100.96 88.15 111.8"/><polyline class="cls-3" points="113.59 70.25 110.1 78.33 106.9 84.7 103.54 90.32"/><path class="cls-3" d="M116.89,77.93c0,.18-13.35,12.39-13.35,12.39"/><polyline class="cls-2" points="124.71 58.76 122.55 67.19 122.12 70.66"/><path class="cls-2" d="M131.05,61.55c-.17.08-7.63,7.3-7.63,7.3l-1.3,1.81"/><line class="cls-2" x1="143.82" y1="46.44" x2="131.05" y2="61.55"/><path class="cls-2" d="M149.3,26.14c0,.51-2.47,5.83-2.47,5.83l-2.53,2.57"/><line class="cls-2" x1="151.92" y1="32.85" x2="143.82" y2="46.44"/><polyline class="cls-3" points="151.92 32.85 155.64 32.52 159.68 30.44 169.52 26.22"/><polyline class="cls-3" points="156.63 18.78 153.41 27.04 151.92 32.85"/><line class="cls-2" x1="156.63" y1="18.78" x2="153.41" y2="27.04"/><line class="cls-2" x1="161.25" y1="12.53" x2="162.49" y2="19.47"/><polyline class="cls-3" points="108.02 127.21 105.2 129.16 91.79 134.59"/><line class="cls-3" x1="110.86" y1="114.93" x2="100.83" y2="123.18"/><line class="cls-3" x1="127.25" y1="96.33" x2="110.77" y2="107.4"/><polyline class="cls-3" points="141.42 80.36 136.32 82.9 127.8 88.2"/><polyline class="cls-3" points="149.2 66.7 141.7 71.48 137.04 75.11"/><polyline class="cls-3" points="150.4 55.48 155.22 53.31 159.63 49.35"/><line class="cls-3" x1="160.57" y1="42.09" x2="169.07" y2="32.13"/><polyline class="cls-3" points="169.52 26.22 173.08 24.7 173.63 23.66"/><polyline class="cls-3" points="171.62 17.89 172.77 16.61 173.06 15.43"/><line class="cls-3" x1="170.29" y1="7.97" x2="174.16" y2="3.65"/><polyline class="cls-3" points="159.2 7.46 161.12 4.17 161.66 2.03 163.67 0.09"/><polyline class="cls-3" points="149.93 11.87 148.6 14.41 145.33 19.11 144.44 22.61"/><polyline class="cls-3" points="141.08 20.08 139.11 23.53 135.52 31.01"/><line class="cls-3" x1="130.94" y1="26.41" x2="129.86" y2="40.77"/><polyline class="cls-3" points="117.07 42.49 113.64 48.44 108.77 65.17"/><path class="cls-3" d="M83,84.25c-.06.24-7.24,10.07-7.24,10.07l-4.44,4.41"/><line class="cls-3" x1="67.17" y1="99.17" x2="56.9" y2="115.12"/><polyline class="cls-3" points="100.77 67.11 97.26 73.69 94.15 77.24 90.11 81.32"/><polygon class="cls-1" points="235.09 178.53 236.4 176.71 239.36 176.85 240.25 176.45 240.25 176.45 252.57 190.46 252.03 196.24 235.09 178.53"/><polygon class="cls-2" points="235.09 178.53 223.25 179.82 215.86 177.8 208.79 172.83 191.35 154.66 215.37 161.35 218.36 162.76 223.07 165.73 225.49 165.95 222.14 160.66 220.67 155.26 219.71 150.07 219.14 144.79 220.01 140 219.33 137.44 219.01 126.34 226.03 138.95 229.87 144 236.09 154.15 238.34 160.49 238.64 162.63 238.43 174.41 240.25 176.45 239.37 176.82 236.4 176.71 235.09 178.53"/><polyline class="cls-2" points="225.49 165.95 231.02 171.98 236.4 176.71"/><polyline class="cls-2" points="221.13 170.25 221.81 171.06 225.6 172.32 229.42 174.39 235.09 178.53"/><polyline class="cls-2" points="230.86 159.82 231.91 162.78 232.12 166.93 233.52 172.12 236.29 174.93 236.4 176.71"/><line class="cls-3" x1="219.01" y1="126.34" x2="213.52" y2="113.41"/><polyline class="cls-3" points="179.31 144.33 182.89 146.68 188.56 153.44 191.35 154.66"/><polyline class="cls-2" points="175.75 134.06 197.17 138.72 206.75 143.97 201.81 131.1 198.1 107.11 196.92 104.54 197.64 100.63 207.99 114.09 219.06 132.03 219.33 137.44 220.01 140 219.14 144.79 220.67 155.26 222.14 160.66 225.49 165.95 223.07 165.73 218.36 162.76 215.37 161.35 191.35 154.66 175.75 134.06"/><polygon class="cls-4" points="212.26 150.29 219.16 155.07 221.31 157.61 222.14 160.66 225.49 165.95 223.07 165.73 218.36 162.76 216.91 159.14 213.8 155.51 212.26 150.29"/><polyline class="cls-2" points="175.83 134.07 165.38 122.67 160.49 118.53 178.88 117.79 188.59 123.92 186.97 90.82 197 104.55 198.17 107.13 201.89 131.12 206.82 143.99 197.25 138.73 175.83 134.07"/><polyline class="cls-2" points="160.42 118.52 156.2 111.99 144.38 98.53 144.38 98.53 168.67 105.75 179.41 113.03 174.65 102.65 171.86 79.77 187.19 96.92 188.51 123.9 178.81 117.77 160.42 118.52"/><polyline class="cls-2" points="168.67 105.75 147.05 99.32 129.59 78.78 154.31 85.77 152.2 74.09 153.91 61.42 171.86 79.77 174.65 102.65 179.41 113.03 168.67 105.75"/><polyline class="cls-2" points="129.59 78.78 116.04 65.22 136.01 65.85 142.9 71.58 141.36 63.09 141.51 51.28 153.91 61.42 152.2 74.09 154.31 85.77 129.59 78.78"/><polyline class="cls-2" points="136.01 65.85 116.04 65.22 106.75 56.01 97.41 49.67 127.56 56.29 123.95 45.93 122.88 36.56 125.04 37.6 141.51 51.28 142.9 71.58 136.01 65.85"/><polyline class="cls-2" points="97.41 49.67 89.67 40.19 113.4 42.49 112.17 36.78 106.81 24.12 110.24 25.48 110.24 25.48 110.24 25.48 122.88 36.56 127.56 56.29 97.41 49.67"/><polyline class="cls-2" points="89.67 40.19 81.35 31.82 88.89 31.06 94.72 31.55 87.81 21.96 87.22 17.6 86.88 12.74 97 21.07 95.04 15.42 106.81 24.12 112.17 36.78 113.4 42.49 89.67 40.19"/><polyline class="cls-2" points="88.9 31.05 84.61 31.48 81.7 29.38 75.61 24.37 78.19 23.12 80.81 22.68 78.52 19.96 77.4 17.19 76.9 13.35 87.23 17.58 87.82 21.94 94.73 31.53 88.9 31.05"/><polygon class="cls-4" points="201.51 135.73 203.01 136.23 203.72 136.11 203.72 136.11 206.75 143.97 197.17 138.72 195.06 138.28 192.8 128.1 198.38 133.56 201.51 135.73"/><polyline class="cls-2" points="211.94 138.03 211.5 139.34 211.98 142.49 213.03 145.45 214.18 148.12 216.74 152.21 219.16 155.07"/><polyline class="cls-2" points="199.62 150.04 199.87 150.47 202.43 151.32 203.29 151.71 206.71 153.74 209.52 155.12 213.8 155.51"/><line class="cls-2" x1="181.02" y1="129.49" x2="194.2" y2="134.43"/><line class="cls-2" x1="206.75" y1="143.97" x2="212.26" y2="150.29"/><line class="cls-2" x1="188.51" y1="123.9" x2="192.8" y2="128.1"/><line class="cls-2" x1="164.92" y1="111.33" x2="178.81" y2="117.77"/><polyline class="cls-4" points="179.41 113.03 188.17 115.39 188.51 123.9 178.81 117.77 178.81 117.77 179.41 113.03"/><polyline class="cls-2" points="164.15 84.03 168.1 95.37 174.65 102.65"/><line class="cls-2" x1="154.31" y1="85.77" x2="164.11" y2="97.93"/><polyline class="cls-4" points="174.65 102.65 179.41 113.03 168.67 105.75 164.11 97.94 174.65 102.65"/><polyline class="cls-3" points="135 74.33 142.81 78.38 148.94 82.02 154.31 85.77"/><path class="cls-3" d="M142.9,71.58c.18,0,11.41,14.19,11.41,14.19"/><polyline class="cls-2" points="124.32 62.42 132.59 65.18 136.01 65.85"/><path class="cls-2" d="M127.56,56.29c.07.18,6.74,8.14,6.74,8.14L136,65.85"/><line class="cls-2" x1="113.4" y1="42.49" x2="127.56" y2="56.29"/><path class="cls-2" d="M93.53,35.59c.5.08,5.64,2.87,5.64,2.87l2.38,2.71"/><line class="cls-2" x1="100.42" y1="33.44" x2="113.4" y2="42.49"/><polyline class="cls-3" points="100.42 33.45 100.35 29.71 98.56 25.54 95.04 15.42"/><polyline class="cls-3" points="86.71 27.76 94.72 31.55 100.42 33.45"/><line class="cls-2" x1="86.71" y1="27.76" x2="94.72" y2="31.55"/><line class="cls-2" x1="80.8" y1="22.7" x2="87.81" y2="21.96"/><polyline class="cls-3" points="191.42 83.92 193.17 86.86 197.64 100.63"/><line class="cls-3" x1="179.37" y1="80.22" x2="186.89" y2="90.81"/><line class="cls-3" x1="161.98" y1="62.55" x2="171.86" y2="79.77"/><polyline class="cls-3" points="147.06 47.29 149.23 52.55 153.91 61.42"/><polyline class="cls-3" points="133.98 38.56 138.22 46.38 141.51 51.28"/><polyline class="cls-3" points="122.88 36.56 121.05 31.61 117.42 26.93"/><line class="cls-3" x1="110.24" y1="25.48" x2="100.91" y2="16.29"/><polyline class="cls-3" points="95.04 15.42 93.78 11.77 92.78 11.14"/><polyline class="cls-3" points="86.88 12.74 85.69 11.5 84.53 11.12"/><line class="cls-3" x1="76.9" y1="13.36" x2="72.86" y2="9.19"/><polyline class="cls-3" points="75.6 24.38 72.45 22.24 70.35 21.55 68.56 19.41"/><polyline class="cls-3" points="79.34 33.95 81.78 35.46 86.24 39.05 89.67 40.19"/><polyline class="cls-3" points="86.9 43.35 90.21 45.57 97.41 49.67"/><line class="cls-3" x1="92.5" y1="53.92" x2="106.75" y2="56.01"/><polyline class="cls-3" points="107.56 68.89 113.25 72.74 129.59 78.78"/><path class="cls-3" d="M146.8,105.84c.23.08,9.53,7.94,9.53,7.94l4.09,4.74"/><line class="cls-3" x1="160.56" y1="122.68" x2="175.75" y2="134.06"/><polyline class="cls-3" points="130.96 86.9 137.28 90.86 140.59 94.22 144.38 98.53"/><path class="cls-5" d="M69.57,124.63l-.64,7.13H66a59.14,59.14,0,0,1-12.81-1.31A40.58,40.58,0,0,1,42.5,126.6a26.56,26.56,0,0,1-10-9.3,24,24,0,0,1-3.61-12.93,21.86,21.86,0,0,1,3.29-11.72,27.29,27.29,0,0,1,8.62-8.75,37.35,37.35,0,0,1,11.46-4.7A58.16,58.16,0,0,1,66,77.57h2.19l.42,7.13H67a60.28,60.28,0,0,0-10.07.72,37.67,37.67,0,0,0-8.11,2.36,18,18,0,0,0-8.35,6.7,17.17,17.17,0,0,0-3.09,9.79,18.06,18.06,0,0,0,2.9,10.45,19.15,19.15,0,0,0,7.69,6.51,31.2,31.2,0,0,0,8.4,2.61,59,59,0,0,0,9.89.79h3.35Z"/><path class="cls-5" d="M120.25,103.73H81.81a23.33,23.33,0,0,0,2.39,10.34,19.45,19.45,0,0,0,7.18,7.79,23.34,23.34,0,0,0,7,3,39.28,39.28,0,0,0,9.46,1c2,0,3.87-.05,5.56-.15s2.72-.18,3.11-.22l-1,7.07c-.28,0-1.22.1-2.82.19s-3.47.13-5.63.13a46.33,46.33,0,0,1-14.81-2.2A28,28,0,0,1,82,124.52a27.33,27.33,0,0,1-5.88-8.3A25.63,25.63,0,0,1,73.67,105a31.28,31.28,0,0,1,1.81-11A29.52,29.52,0,0,1,80.9,85a21.06,21.06,0,0,1,7.79-5.59,24.56,24.56,0,0,1,9.65-2,23.94,23.94,0,0,1,8.78,1.49,17.66,17.66,0,0,1,6.64,4.52,22.55,22.55,0,0,1,4.79,8.37A38.92,38.92,0,0,1,120.25,103.73Zm-9.61-5.29a16,16,0,0,0-4.08-9.4,11.64,11.64,0,0,0-8.73-3.41,12.57,12.57,0,0,0-9,3.46,18.52,18.52,0,0,0-5,9.35Z"/><path class="cls-5" d="M160.59,85.06a87.9,87.9,0,0,0-9,2.93c-3.16,1.17-6.73,3.08-12.81,6a15.89,15.89,0,0,0-1.15,5.35q0,4.75,0,8.85,0,6.27.13,14.89t.13,9.57h-8.4c0-.6,0-2.59.11-5.95s.11-9.13.11-17.29q0-4.94-.06-13.82t-.16-16.75h8.24v8.08l.06.06A118.9,118.9,0,0,1,149.64,81a69.49,69.49,0,0,1,9.35-3.4Z"/><path class="cls-5" d="M208.81,102.73H170.37a23.33,23.33,0,0,0,2.39,10.34,19.45,19.45,0,0,0,7.18,7.79,23.34,23.34,0,0,0,7,3,39.23,39.23,0,0,0,9.46,1c2,0,3.87-.05,5.56-.15s2.72-.18,3.11-.22l-1,7.07c-.28,0-1.22.1-2.82.19s-3.47.13-5.63.13a44.85,44.85,0,0,1-14.81-2.2,28.12,28.12,0,0,1-10.35-6.09,27.48,27.48,0,0,1-5.87-8.3A25.63,25.63,0,0,1,162.23,104a31.28,31.28,0,0,1,1.81-11A29.52,29.52,0,0,1,169.46,84a21.06,21.06,0,0,1,7.79-5.59,24.56,24.56,0,0,1,9.65-2,24,24,0,0,1,8.78,1.49,17.74,17.74,0,0,1,6.64,4.52,22.69,22.69,0,0,1,4.79,8.37A39.23,39.23,0,0,1,208.81,102.73Zm-9.61-5.29a16,16,0,0,0-4.08-9.4,11.64,11.64,0,0,0-8.73-3.41,12.57,12.57,0,0,0-9,3.46,18.45,18.45,0,0,0-5,9.35Z"/><path class="cls-5" d="M247.61,116a13.06,13.06,0,0,1-1.92,7,15.35,15.35,0,0,1-5,5A25.24,25.24,0,0,1,233,131a43.5,43.5,0,0,1-9.83,1c-1.74,0-3.54-.07-5.41-.23s-2.92-.26-3.17-.3l-.32-7,3.7.29c2.15.16,4.28.24,6.41.24a46.62,46.62,0,0,0,4.78-.32,16.19,16.19,0,0,0,4.84-1.17,9.63,9.63,0,0,0,3.94-2.87,6.63,6.63,0,0,0,1.27-4.1,5.39,5.39,0,0,0-1.11-3.53,13.44,13.44,0,0,0-3.09-2.63,37.75,37.75,0,0,0-5.82-3.06,57.06,57.06,0,0,1-6.19-3.11,16.25,16.25,0,0,1-5.45-5.16,12.61,12.61,0,0,1-1.89-6.91,12.24,12.24,0,0,1,2.15-7.07,15.89,15.89,0,0,1,5.78-5.06,21.17,21.17,0,0,1,7-2.26,50.93,50.93,0,0,1,7.37-.55c2.17,0,3.94,0,5.33.1s2.18.11,2.4.11l.58,7.07c-.25,0-1.34-.07-3.28-.21s-4.06-.21-6.36-.21a25,25,0,0,0-4.67.42,14.31,14.31,0,0,0-3.76,1.22,7.78,7.78,0,0,0-3.27,2.82,6.22,6.22,0,0,0-1,3.19,5.28,5.28,0,0,0,1.39,3.67,12.78,12.78,0,0,0,3.25,2.61q2.17,1.28,6,3A54.09,54.09,0,0,1,240,104a18.64,18.64,0,0,1,5.68,5.21A11.8,11.8,0,0,1,247.61,116Z"/><path d="M64.72,121.82l-.58,6.48H61.48a54.41,54.41,0,0,1-11.65-1.19,37.34,37.34,0,0,1-9.72-3.5A24.25,24.25,0,0,1,31,115.15a21.77,21.77,0,0,1-3.28-11.75,20,20,0,0,1,3-10.66,24.7,24.7,0,0,1,7.84-7.95,34,34,0,0,1,10.41-4.28A53.15,53.15,0,0,1,61.48,79h2l.39,6.47h-1.5a54.38,54.38,0,0,0-9.16.66,33.45,33.45,0,0,0-7.37,2.15,16.21,16.21,0,0,0-7.59,6.09,15.62,15.62,0,0,0-2.81,8.89,16.38,16.38,0,0,0,2.64,9.5,17.29,17.29,0,0,0,7,5.92,28,28,0,0,0,7.64,2.37,52.71,52.71,0,0,0,9,.73h3Z"/><path d="M115.13,101.85H80.18a21.41,21.41,0,0,0,2.18,9.41,17.68,17.68,0,0,0,6.53,7.08A21.43,21.43,0,0,0,95.27,121a35.68,35.68,0,0,0,8.6.89c1.84,0,3.52,0,5-.14l2.83-.19-.87,6.43c-.26,0-1.11.08-2.56.16s-3.16.13-5.13.13a40.7,40.7,0,0,1-13.46-2,25.45,25.45,0,0,1-9.4-5.54A24.62,24.62,0,0,1,75,113.21a23.25,23.25,0,0,1-2.2-10.2,28.64,28.64,0,0,1,1.64-10,27,27,0,0,1,4.93-8.27,19.13,19.13,0,0,1,7.08-5.08,22.37,22.37,0,0,1,8.78-1.78,21.9,21.9,0,0,1,8,1.35,16.13,16.13,0,0,1,6,4.11A20.66,20.66,0,0,1,113.59,91,35.49,35.49,0,0,1,115.13,101.85Zm-7.49-5.41a16,16,0,0,0-4.08-9.4,11.64,11.64,0,0,0-8.73-3.41,12.57,12.57,0,0,0-9,3.46,18.52,18.52,0,0,0-5,9.35Z"/><path d="M156.17,84.89A77.16,77.16,0,0,0,148,87.55q-5.49,2-12.64,5.41c0,.35,0,2,0,4.86s-.05,5.56-.05,8.05q0,5.7.12,13.53t.12,8.7H127.9c0-.55,0-2.35.09-5.41s.1-8.3.1-15.71q0-4.5-.05-12.57t-.14-15.23h7.49v7.35l.05,0a109.12,109.12,0,0,1,10.78-5.37,63.75,63.75,0,0,1,8.51-3.09Z"/><path d="M203.69,101.85H168.74a21.28,21.28,0,0,0,2.18,9.41,17.72,17.72,0,0,0,6.52,7.08,21.6,21.6,0,0,0,6.39,2.68,35.68,35.68,0,0,0,8.6.89c1.84,0,3.52,0,5-.14l2.83-.19-.87,6.43c-.26,0-1.11.08-2.56.16s-3.16.13-5.13.13a40.7,40.7,0,0,1-13.46-2,25.45,25.45,0,0,1-9.4-5.54,24.62,24.62,0,0,1-5.34-7.54,23.25,23.25,0,0,1-2.2-10.2,28.41,28.41,0,0,1,1.64-10,27,27,0,0,1,4.93-8.27A19.13,19.13,0,0,1,175,79.71a22.37,22.37,0,0,1,8.78-1.78,21.94,21.94,0,0,1,8,1.35,16.13,16.13,0,0,1,6.05,4.11A20.66,20.66,0,0,1,202.15,91,35.8,35.8,0,0,1,203.69,101.85Zm-7.49-5.41a16,16,0,0,0-4.08-9.4,11.64,11.64,0,0,0-8.73-3.41,12.57,12.57,0,0,0-9,3.46,18.45,18.45,0,0,0-5,9.35Z"/><path d="M243.09,113.94a11.86,11.86,0,0,1-1.74,6.38,14,14,0,0,1-4.55,4.54,23.07,23.07,0,0,1-7,2.78,39.27,39.27,0,0,1-8.93,1c-1.58,0-3.22-.08-4.92-.22l-2.88-.27-.29-6.33,3.36.27q2.93.21,5.83.21a40.19,40.19,0,0,0,4.35-.29,14.63,14.63,0,0,0,4.39-1.06,8.7,8.7,0,0,0,3.58-2.61,6,6,0,0,0,1.16-3.72,4.94,4.94,0,0,0-1-3.22,12.1,12.1,0,0,0-2.81-2.39,34.18,34.18,0,0,0-5.29-2.78,49.61,49.61,0,0,1-5.63-2.83,15,15,0,0,1-5-4.69A11.5,11.5,0,0,1,214,92.38,11.05,11.05,0,0,1,216,86a14.47,14.47,0,0,1,5.25-4.59,19,19,0,0,1,6.32-2.06,46.07,46.07,0,0,1,6.71-.5c2,0,3.58,0,4.84.09s2,.1,2.18.1l.53,6.43c-.22,0-1.22-.07-3-.2s-3.69-.19-5.79-.19a22.28,22.28,0,0,0-4.24.39,12.76,12.76,0,0,0-3.41,1.11,7,7,0,0,0-3,2.56,5.65,5.65,0,0,0-.9,2.9,4.84,4.84,0,0,0,1.26,3.34,12.06,12.06,0,0,0,3,2.37q2,1.15,5.42,2.75a52.8,52.8,0,0,1,5,2.56,17.05,17.05,0,0,1,5.16,4.74A10.75,10.75,0,0,1,243.09,113.94Z"/></g></g></svg>